<svg width="16" height="18" viewBox="0 0 16 18" fill="none" xmlns="http://www.w3.org/2000/svg">
<path d="M14.8199 9.23118L8.33997 2.74117C8.27997 2.69117 8.22002 2.65117 8.15002 2.62117C8.15002 2.62117 8.13 2.62117 8.12 2.62117C7.97 2.56117 7.81003 2.56117 7.66003 2.62117C7.59003 2.65117 7.52998 2.69117 7.47998 2.74117C7.47998 2.74117 7.46996 2.74117 7.45996 2.75117L0.969971 9.24117C0.849971 9.36117 0.790039 9.51117 0.790039 9.68117C0.790039 9.85117 0.849971 10.0012 0.969971 10.1212C1.08997 10.2412 1.24003 10.3012 1.41003 10.3012C1.58003 10.3012 1.72998 10.2312 1.84998 10.1212L7.29004 4.68117V16.7012C7.29004 17.0412 7.57003 17.3212 7.91003 17.3212C8.25003 17.3212 8.53003 17.0412 8.53003 16.7012V4.68117L13.96 10.1112C14.2 10.3512 14.59 10.3512 14.84 10.1112C15.09 9.87117 15.08 9.48118 14.84 9.23118H14.8199Z" fill="#D1D3D4"/>
<path d="M1.41003 1.88063H14.39C14.73 1.88063 15.01 1.60062 15.01 1.26062C15.01 0.920624 14.73 0.640625 14.39 0.640625H1.41003C1.07003 0.640625 0.790039 0.920624 0.790039 1.26062C0.790039 1.60062 1.07003 1.88063 1.41003 1.88063Z" fill="#D1D3D4"/>
</svg>
