<svg width="18" height="18" viewBox="0 0 18 18" fill="none" xmlns="http://www.w3.org/2000/svg">
<path d="M6.32001 17.6184H1.82001C0.930007 17.6184 0.210022 16.8984 0.210022 16.0084V11.5084C0.210022 10.6184 0.930007 9.89844 1.82001 9.89844H6.32001C7.21001 9.89844 7.92999 10.6184 7.92999 11.5084V16.0084C7.92999 16.8984 7.21001 17.6184 6.32001 17.6184ZM1.82001 10.5284C1.28001 10.5284 0.830017 10.9684 0.830017 11.5184V16.0184C0.830017 16.5584 1.27001 17.0084 1.82001 17.0084H6.32001C6.86001 17.0084 7.31 16.5684 7.31 16.0184V11.5184C7.31 10.9784 6.87001 10.5284 6.32001 10.5284H1.82001Z" fill="#D1D3D4"/>
<path d="M15.42 17.6184H10.92C10.03 17.6184 9.31 16.8984 9.31 16.0084V11.5084C9.31 10.6184 10.03 9.89844 10.92 9.89844H15.42C16.31 9.89844 17.03 10.6184 17.03 11.5084V16.0084C17.03 16.8984 16.31 17.6184 15.42 17.6184ZM10.92 10.5284C10.38 10.5284 9.92999 10.9684 9.92999 11.5184V16.0184C9.92999 16.5584 10.37 17.0084 10.92 17.0084H15.42C15.96 17.0084 16.41 16.5684 16.41 16.0184V11.5184C16.41 10.9784 15.97 10.5284 15.42 10.5284H10.92Z" fill="#D1D3D4"/>
<path d="M6.32001 8.58914H1.82001C0.930007 8.58914 0.210022 7.86914 0.210022 6.97914V2.47914C0.210022 1.58914 0.930007 0.869141 1.82001 0.869141H6.32001C7.21001 0.869141 7.92999 1.58914 7.92999 2.47914V6.97914C7.92999 7.86914 7.21001 8.58914 6.32001 8.58914ZM1.82001 1.49914C1.28001 1.49914 0.830017 1.93914 0.830017 2.48914V6.98914C0.830017 7.52914 1.27001 7.97914 1.82001 7.97914H6.32001C6.86001 7.97914 7.31 7.53914 7.31 6.98914V2.48914C7.31 1.94914 6.87001 1.49914 6.32001 1.49914H1.82001Z" fill="#D1D3D4"/>
<path d="M15.42 8.58914H10.92C10.03 8.58914 9.31 7.86914 9.31 6.97914V2.47914C9.31 1.58914 10.03 0.869141 10.92 0.869141H15.42C16.31 0.869141 17.03 1.58914 17.03 2.47914V6.97914C17.03 7.86914 16.31 8.58914 15.42 8.58914ZM11.2 1.89914C10.72 1.89914 10.34 2.28914 10.34 2.75914V6.68914C10.34 7.16914 10.73 7.54914 11.2 7.54914H15.13C15.6 7.54914 15.99 7.15914 15.99 6.68914V2.75914C15.99 2.27914 15.6 1.89914 15.13 1.89914H11.2Z" fill="#D1D3D4"/>
<path d="M6.40002 8.58914H1.90002C1.01002 8.58914 0.289978 7.86914 0.289978 6.97914V2.47914C0.289978 1.58914 1.01002 0.869141 1.90002 0.869141H6.40002C7.29002 0.869141 8.01001 1.58914 8.01001 2.47914V6.97914C8.01001 7.86914 7.29002 8.58914 6.40002 8.58914ZM2.17999 1.89914C1.69999 1.89914 1.32001 2.28914 1.32001 2.75914V6.68914C1.32001 7.16914 1.70999 7.54914 2.17999 7.54914H6.10999C6.57999 7.54914 6.96997 7.15914 6.96997 6.68914V2.75914C6.96997 2.27914 6.57999 1.89914 6.10999 1.89914H2.17999Z" fill="#D1D3D4"/>
<path d="M15.42 17.4993H10.92C10.03 17.4993 9.31 16.7793 9.31 15.8893V11.3893C9.31 10.4993 10.03 9.7793 10.92 9.7793H15.42C16.31 9.7793 17.03 10.4993 17.03 11.3893V15.8893C17.03 16.7793 16.31 17.4993 15.42 17.4993ZM11.2 10.8093C10.72 10.8093 10.34 11.1993 10.34 11.6693V15.5993C10.34 16.0793 10.73 16.4593 11.2 16.4593H15.13C15.6 16.4593 15.99 16.0693 15.99 15.5993V11.6693C15.99 11.1893 15.6 10.8093 15.13 10.8093H11.2Z" fill="#D1D3D4"/>
<path d="M6.40002 17.4993H1.90002C1.01002 17.4993 0.289978 16.7793 0.289978 15.8893V11.3893C0.289978 10.4993 1.01002 9.7793 1.90002 9.7793H6.40002C7.29002 9.7793 8.01001 10.4993 8.01001 11.3893V15.8893C8.01001 16.7793 7.29002 17.4993 6.40002 17.4993ZM2.17999 10.8093C1.69999 10.8093 1.32001 11.1993 1.32001 11.6693V15.5993C1.32001 16.0793 1.70999 16.4593 2.17999 16.4593H6.10999C6.57999 16.4593 6.96997 16.0693 6.96997 15.5993V11.6693C6.96997 11.1893 6.57999 10.8093 6.10999 10.8093H2.17999Z" fill="#D1D3D4"/>
</svg>
