<svg width="25" height="25" viewBox="0 0 25 25" fill="none" xmlns="http://www.w3.org/2000/svg">
<path d="M12.9699 0.359375C13.2399 0.429375 13.5399 0.419373 13.8199 0.459373C24.4099 1.91937 27.81 15.7194 19.06 21.9394C11.8 27.0994 1.58998 22.6594 0.389978 13.8894C0.349978 13.6094 0.360002 13.3094 0.290002 13.0394C0.310002 12.5194 0.260002 11.9794 0.290002 11.4594C0.630002 5.61937 5.54997 0.699375 11.38 0.359375H12.9599H12.9699ZM11.6099 2.27937C3.50995 2.75937 -0.740047 12.3094 4.48995 18.6094C8.86995 23.8894 17.11 23.2794 20.68 17.4394C24.87 10.5994 19.5599 1.79937 11.5999 2.26937L11.6099 2.27937Z" fill="#D1D3D4"/>
<path d="M14.49 6.44939C15.37 6.29939 15.8799 6.94939 15.9399 7.75939C16.1499 10.5994 15.7799 13.7094 15.9399 16.5794C15.7999 18.2894 13.66 18.2194 13.53 16.6794V7.57939C13.56 7.06939 13.98 6.53939 14.49 6.44939Z" fill="#D1D3D4"/>
<path d="M10.8199 6.77901C10.9999 6.95901 11.14 7.26901 11.16 7.52901V16.819C10.9 18.169 9.08004 18.199 8.79004 16.859V7.48901C8.88004 6.50901 10.1201 6.08901 10.8101 6.78901L10.8199 6.77901Z" fill="#D1D3D4"/>
</svg>
