<svg width="21" height="18" viewBox="0 0 21 18" fill="none" xmlns="http://www.w3.org/2000/svg">
<path fill-rule="evenodd" clip-rule="evenodd" d="M4.98962 17.0108C4.64962 17.3508 4.10965 17.3508 3.76965 17.0108L0.309687 13.5508C-0.0303125 13.2108 -0.0303125 12.6708 0.309687 12.3308L3.76965 8.87078C4.10965 8.53078 4.64962 8.53078 4.98962 8.87078C5.32962 9.21078 5.32962 9.75078 4.98962 10.0908L3.00964 12.0708H13.5996C14.6896 12.0708 15.4497 12.0708 16.0497 12.0208C16.6297 11.9708 16.9596 11.8708 17.2096 11.7308C17.5996 11.5008 17.9297 11.1808 18.1597 10.7808C18.2997 10.5308 18.3996 10.2008 18.4496 9.62078C18.4996 9.03078 18.4996 8.27078 18.4996 7.17078C18.4996 6.08078 18.4996 5.32078 18.4496 4.72078C18.3996 4.14078 18.2997 3.81078 18.1597 3.56078C17.9297 3.17078 17.6096 2.84078 17.2096 2.61078C16.9596 2.47078 16.6297 2.37078 16.0497 2.32078C15.4597 2.27078 14.6996 2.27078 13.5996 2.27078H12.6296C12.1496 2.27078 11.7696 1.88078 11.7696 1.41078C11.7696 0.930782 12.1596 0.550781 12.6296 0.550781H13.6396C14.6796 0.550781 15.5196 0.550783 16.1996 0.610783C16.8996 0.670783 17.5097 0.810783 18.0597 1.13078C18.7197 1.51078 19.2596 2.05078 19.6396 2.71078C19.9596 3.26078 20.0897 3.88078 20.1597 4.57078C20.2197 5.25078 20.2196 6.09078 20.2196 7.13078V7.21078C20.2196 8.25078 20.2197 9.09078 20.1597 9.77078C20.0997 10.4708 19.9596 11.0808 19.6396 11.6308C19.2596 12.2908 18.7197 12.8308 18.0597 13.2108C17.5097 13.5308 16.8896 13.6608 16.1996 13.7308C15.5196 13.7908 14.6796 13.7908 13.6396 13.7908H3.00964L4.98962 15.7708C5.32962 16.1108 5.32962 16.6508 4.98962 16.9908V17.0108Z" fill="#D1D3D4"/>
</svg>
